<?xml version="1.0" encoding="UTF-8" standalone="no"?>
<svg
   width="74.911011"
   height="60.327805"
   viewBox="0 0 74.911011 60.327805"
   fill="none"
   version="1.1"
   id="svg1"
   xmlns="http://www.w3.org/2000/svg"
   xmlns:svg="http://www.w3.org/2000/svg">
  <defs
     id="defs1" />
  <path
     d="m 72.872483,0.55145987 c -0.9064,-0.5312 -1.9848,-0.68624 -3.0041,-0.432 -1.0194,0.2543 -1.8986,0.89760003 -2.4494,1.79220003 l -15.2872,24.2848001 -4.6797,7.3628 -3.3819,3.2072 c -3.658,3.4684 -5.8164,8.2286 -6.015,13.2656 l -0.2996,7.3253 c 0,0 0,0 0,0.0999 h -0.1497 c -3.627,0.3908 -7.2824,0.4451 -10.9194,0.1622 -2.0217,-0.2246 -8.7356,-1.2479 -10.6324,-5.1665 -0.1709,-0.3075 -0.2748,-0.6478 -0.3049,-0.9983 -0.0301,-0.3506 0.0143,-0.7036 0.1302,-1.0358 0.7005,-1.3596 1.8984,-2.3967 3.3444,-2.8952 0.7613,-0.3369 1.6723,-0.6739 2.6332,-1.0358 3.4068,-1.2479 7.2754,-2.683 9.0849,-5.5408 0.3211,-0.4764 0.5439,-1.0121 0.6553,-1.5756 0.1114,-0.5636 0.1093,-1.1437 -0.0063,-1.7065 -0.2109,-0.7697 -0.572,-1.4902 -1.0625,-2.1199 -0.4904,-0.6296 -1.1006,-1.1561 -1.7953,-1.549 -7.862,-4.8669 -19.6799003,-4.4551 -28.10348027,0.9734 -0.14718,0.0839 -0.27572,0.197 -0.37779,0.3323 -0.10207,0.1352 -0.17552,0.2898 -0.21589,0.4544 -0.04036,0.1645 -0.04679,0.3356 -0.01889,0.5027 0.0279,0.1672 0.08954,0.3269 0.18117,0.4694 0.09162,0.1425 0.21132,0.2649 0.35178,0.3597 0.14046,0.0947 0.29875,0.1599 0.46521997,0.1915 0.16647,0.0316 0.33763,0.029 0.50305,-0.0077 0.16542,-0.0367 0.32163,-0.1067 0.45911,-0.2058 7.66232,-4.9917 18.3571203,-5.3411 25.4329203,-0.9484 0.83,0.4433 1.4627,1.1829 1.772,2.0716 0.0521,0.2481 0.0535,0.5043 0.0041,0.753 -0.0493,0.2488 -0.1483,0.485 -0.2911,0.6946 -1.3602,2.1339 -4.9917,3.4567 -7.837,4.53 -1.0108,0.3619 -1.9468,0.7113 -2.7829,1.0857 -1.3727,0.6115 -3.8312,1.9842 -4.6798,4.3178 -0.2322,0.6486 -0.3277,1.3382 -0.2805,2.0254 0.0473,0.6873 0.2363,1.3573 0.5551,1.968 2.3835,4.9044 9.6091,6.2397 12.6041,6.5392 1.3797,0.1557 2.7672,0.2307 4.1556,0.2246 2.4335,0 4.8545,-0.1872 7.2381,-0.3744 l 1.5224,-0.1123 c 0.3232,0.1411 0.6708,0.2174 1.0233,0.2246 0.5037,3e-4 0.9971,-0.1425 1.4227,-0.4118 l 6.1523,-3.9809 c 4.2391,-2.7287 7.2371,-7.0129 8.3487,-11.9302 l 1.0482,-4.5425 3.9186,-7.6249 c 0,0 0,0 0,-0.0749 l 13.1532,-25.6076001 c 0.4805,-0.9219 0.5839,-1.9945 0.2881,-2.9912 -0.2957,-0.9967 -0.9674,-1.8393 -1.873,-2.34990003 z M 53.891383,43.19336 c -0.9782,4.2773 -3.589,8.0031 -7.2754,10.3828 l -6.1648,3.9809 0.6739,1.0483 -0.3869,-0.5367 c -0.0833,-0.1764 -0.2023,-0.3336 -0.3494,-0.4617 l -0.1123,-0.1497 0.2995,-7.3129 c 0.1669,-4.386 2.049,-8.5311 5.2413,-11.5434 l 2.8827,-2.6956 6.1149,3.4943 z m 1.7721,-6.1523 -5.4535,-3.1199 3.3819,-5.3661 4.9918,2.8328 z m 16.5726,-32.2841001 -12.4794,24.4096001 -4.817,-2.733 14.6507,-23.2115001 c 0.2155,-0.3246 0.5464,-0.5551 0.9255,-0.6447 0.3791,-0.0897 0.7781,-0.0319 1.1162,0.1618 0.3381,0.1936 0.5898,0.5085 0.7043,0.8809 0.1145,0.3724 0.0831,0.7743 -0.0879,1.1244 z"
     fill="black"
     id="path1"
     style="fill:#a90636;fill-opacity:1" />
</svg>
